M48
;DRILL file {KiCad 5.0.0-rc2-dev-unknown-5ef715f~63~ubuntu16.04.1} date Sun Apr 29 19:29:14 2018
;FORMAT={-:-/ absolute / inch / decimal}
FMAT,2
INCH,TZ
T1C0.0157
T2C0.0315
T3C0.0354
T4C0.0433
T5C0.0591
%
G90
G05
M72
T1
X0.9843Y-5.4429
X0.9941Y-5.1083
X1.5551Y-4.1575
X1.624Y-3.937
X1.626Y-4.0748
X1.8307Y-4.6949
X1.8307Y-4.7835
X1.8307Y-4.9114
X1.8307Y-5.
X1.8307Y-5.1083
X1.8307Y-5.2165
X1.8307Y-5.315
X1.8406Y-5.4232
X1.8406Y-5.5807
X1.8504Y-5.7087
X1.9134Y-3.4055
X1.998Y-4.6949
X2.0157Y-3.2992
X2.1161Y-4.7835
X2.122Y-3.189
X2.2126Y-3.0906
X2.2441Y-4.9114
X2.315Y-3.
X2.4114Y-2.9331
X2.4409Y-5.
X2.5Y-2.874
X2.5689Y-5.1083
X2.5689Y-5.2165
X2.6969Y-3.4055
X2.7067Y-2.874
X2.7067Y-2.9331
X2.7067Y-3.002
X2.7067Y-3.0906
X2.7067Y-3.189
X2.7067Y-3.2972
X2.7362Y-4.1535
X2.7854Y-4.0157
X2.8346Y-5.315
X2.8445Y-5.7087
X3.0118Y-5.5807
X3.0217Y-4.0157
X3.0217Y-5.4232
T2
X1.2303Y-6.6437
X1.6303Y-6.6437
X2.9528Y-1.6472
X2.9528Y-2.0472
X2.7953Y-4.2913
X3.1953Y-4.2913
X3.1945Y-5.4528
X3.1945Y-5.7528
X3.2945Y-5.4528
X3.2945Y-5.7528
X3.3945Y-5.4528
X3.3945Y-5.7528
X3.4945Y-5.4528
X3.4945Y-5.7528
X3.5945Y-5.4528
X3.5945Y-5.7528
X3.6945Y-5.4528
X3.6945Y-5.7528
X3.7945Y-5.4528
X3.7945Y-5.7528
X3.8945Y-5.4528
X3.8945Y-5.7528
X3.9945Y-5.4528
X3.9945Y-5.7528
X4.0945Y-5.4528
X4.0945Y-5.7528
X4.1339Y-1.6472
X4.1339Y-2.0472
X4.0945Y-6.0961
X4.0945Y-6.4961
X3.7402Y-4.8819
X3.8402Y-4.8819
X4.1339Y-5.
X4.2339Y-5.
X1.Y-1.35
X1.Y-1.4287
X1.Y-1.5075
X1.Y-1.5862
X1.Y-1.665
X1.Y-1.7437
X1.Y-1.8224
X1.Y-1.9012
X1.Y-1.9799
X1.Y-2.0587
X1.0787Y-1.35
X1.0787Y-1.4287
X1.0787Y-1.5075
X1.0787Y-1.5862
X1.0787Y-1.665
X1.0787Y-1.7437
X1.0787Y-1.8224
X1.0787Y-1.9012
X1.0787Y-1.9799
X1.0787Y-2.0587
X1.3287Y-4.6063
X1.3287Y-4.7063
X1.3287Y-4.8063
X1.3287Y-4.9063
X1.3287Y-5.0063
X1.3287Y-5.1063
X1.3287Y-5.2063
X1.6287Y-4.6063
X1.6287Y-4.7063
X1.6287Y-4.8063
X1.6287Y-4.9063
X1.6287Y-5.0063
X1.6287Y-5.1063
X1.6287Y-5.2063
X3.5433Y-4.7638
X3.6433Y-4.7638
X1.5945Y-2.185
X1.5945Y-2.585
X1.811Y-2.3378
X1.811Y-2.6378
X1.911Y-2.3378
X1.911Y-2.6378
X2.011Y-2.3378
X2.011Y-2.6378
X2.111Y-2.3378
X2.111Y-2.6378
X2.211Y-2.3378
X2.211Y-2.6378
X2.311Y-2.3378
X2.311Y-2.6378
X2.411Y-2.3378
X2.411Y-2.6378
X2.511Y-2.3378
X2.511Y-2.6378
X2.611Y-2.3378
X2.611Y-2.6378
X2.711Y-2.3378
X2.711Y-2.6378
X1.3386Y-5.7087
X1.3386Y-5.8087
X1.3386Y-5.9087
X1.3386Y-6.0087
X1.3386Y-6.1087
X1.3386Y-6.2087
X1.3386Y-6.3087
X1.6386Y-5.7087
X1.6386Y-5.8087
X1.6386Y-5.9087
X1.6386Y-6.0087
X1.6386Y-6.1087
X1.6386Y-6.2087
X1.6386Y-6.3087
X4.3307Y-1.6472
X4.3307Y-2.0472
X1.8787Y-6.4638
X1.8787Y-6.5638
X1.9787Y-6.4638
X1.9787Y-6.5638
X2.0787Y-6.4638
X2.0787Y-6.5638
X2.1787Y-6.4638
X2.1787Y-6.5638
X2.2787Y-6.4638
X2.2787Y-6.5638
X2.3787Y-6.4638
X2.3787Y-6.5638
X2.4787Y-6.4638
X2.4787Y-6.5638
X2.5787Y-6.4638
X2.5787Y-6.5638
X2.6787Y-6.4638
X2.6787Y-6.5638
X2.7787Y-6.4638
X2.7787Y-6.5638
X5.348Y-5.8465
X5.748Y-5.8465
X3.189Y-2.3378
X3.189Y-2.6378
X3.289Y-2.3378
X3.289Y-2.6378
X3.389Y-2.3378
X3.389Y-2.6378
X3.489Y-2.3378
X3.489Y-2.6378
X3.589Y-2.3378
X3.589Y-2.6378
X3.689Y-2.3378
X3.689Y-2.6378
X3.789Y-2.3378
X3.789Y-2.6378
X3.889Y-2.3378
X3.889Y-2.6378
X3.989Y-2.3378
X3.989Y-2.6378
X4.089Y-2.3378
X4.089Y-2.6378
X3.5039Y-6.0961
X3.5039Y-6.4961
X0.9287Y-2.4803
X1.3287Y-2.4803
X3.6748Y-4.4094
X3.7748Y-4.4094
X3.8748Y-4.4094
X3.9748Y-4.4094
X4.0748Y-4.4094
X3.5433Y-1.6472
X3.5433Y-2.0472
X3.7402Y-1.6472
X3.7402Y-2.0472
X3.7008Y-6.0961
X3.7008Y-6.4961
X1.811Y-3.7157
X1.811Y-4.0157
X1.911Y-3.7157
X1.911Y-4.0157
X2.011Y-3.7157
X2.011Y-4.0157
X2.111Y-3.7157
X2.111Y-4.0157
X2.211Y-3.7157
X2.211Y-4.0157
X2.311Y-3.7157
X2.311Y-4.0157
X2.411Y-3.7157
X2.411Y-4.0157
X2.511Y-3.7157
X2.511Y-4.0157
X2.611Y-3.7157
X2.611Y-4.0157
X2.711Y-3.7157
X2.711Y-4.0157
X3.937Y-5.
X4.037Y-5.
X3.3465Y-1.6472
X3.3465Y-2.0472
X3.0217Y-3.7598
X3.0217Y-3.9567
X3.8976Y-6.0961
X3.8976Y-6.4961
X2.9921Y-2.3622
X2.9921Y-2.5591
X1.3386Y-2.9134
X1.3386Y-3.0134
X1.3386Y-3.1134
X1.3386Y-3.2134
X1.3386Y-3.3134
X1.3386Y-3.4134
X1.3386Y-3.5134
X1.6386Y-2.9134
X1.6386Y-3.0134
X1.6386Y-3.1134
X1.6386Y-3.2134
X1.6386Y-3.3134
X1.6386Y-3.4134
X1.6386Y-3.5134
X1.437Y-3.8421
X1.437Y-4.2421
X3.189Y-3.7157
X3.189Y-4.0157
X3.289Y-3.7157
X3.289Y-4.0157
X3.389Y-3.7157
X3.389Y-4.0157
X3.489Y-3.7157
X3.489Y-4.0157
X3.589Y-3.7157
X3.589Y-4.0157
X3.689Y-3.7157
X3.689Y-4.0157
X3.789Y-3.7157
X3.789Y-4.0157
X3.889Y-3.7157
X3.889Y-4.0157
X3.937Y-1.6472
X3.937Y-2.0472
X3.7402Y-4.6457
X3.8402Y-4.6457
X3.1496Y-1.6472
X3.1496Y-2.0472
X1.1417Y-4.5016
X1.1417Y-4.9016
X3.5433Y-4.6457
X3.6433Y-4.6457
X1.2303Y-6.5157
X1.6303Y-6.5157
T3
X3.3465Y-1.4354
X3.3465Y-1.5354
X4.0945Y-6.6339
X4.0945Y-6.7339
X3.1496Y-1.4354
X3.1496Y-1.5354
X2.9528Y-1.4354
X2.9528Y-1.5354
X3.5433Y-1.4354
X3.5433Y-1.5354
X3.7008Y-6.6339
X3.7008Y-6.7339
X2.7937Y-4.4488
X2.8937Y-4.4488
X3.8976Y-6.6339
X3.8976Y-6.7339
X0.9843Y-4.8606
X0.9843Y-4.9606
X3.7402Y-1.4354
X3.7402Y-1.5354
X1.437Y-2.185
X1.437Y-2.285
X4.3307Y-1.4354
X4.3307Y-1.5354
X3.5039Y-6.6339
X3.5039Y-6.7339
X4.1339Y-1.4354
X4.1339Y-1.5354
X3.937Y-1.4354
X3.937Y-1.5354
T4
X1.5945Y-1.0827
X1.9945Y-1.0827
T5
X3.8961Y-6.8504
X4.0961Y-6.8504
X3.5024Y-6.8504
X3.7024Y-6.8504
X1.278Y-1.0827
X1.478Y-1.0827
X1.0236Y-5.8563
X1.0236Y-6.0531
X1.0236Y-6.25
X0.9941Y-3.4335
X0.9941Y-3.6335
T0
M30
