G04 #@! TF.GenerationSoftware,KiCad,Pcbnew,no-vcs-found-bf44d39~61~ubuntu16.04.1*
G04 #@! TF.CreationDate,2018-04-25T15:46:39+02:00*
G04 #@! TF.ProjectId,Befehle,42656665686C652E6B696361645F7063,rev?*
G04 #@! TF.SameCoordinates,Original*
G04 #@! TF.FileFunction,Copper,L2,Bot,Signal*
G04 #@! TF.FilePolarity,Positive*
%FSLAX46Y46*%
G04 Gerber Fmt 4.6, Leading zero omitted, Abs format (unit mm)*
G04 Created by KiCad (PCBNEW no-vcs-found-bf44d39~61~ubuntu16.04.1) date Wed Apr 25 15:46:39 2018*
%MOMM*%
%LPD*%
G01*
G04 APERTURE LIST*
%ADD10R,1.800000X1.800000*%
%ADD11C,1.800000*%
%ADD12O,1.600000X2.400000*%
%ADD13R,1.600000X2.400000*%
%ADD14R,2.400000X1.600000*%
%ADD15O,2.400000X1.600000*%
%ADD16O,1.600000X1.600000*%
%ADD17R,1.600000X1.600000*%
%ADD18C,1.600000*%
%ADD19O,2.200000X2.200000*%
%ADD20R,2.200000X2.200000*%
%ADD21O,1.350000X1.350000*%
%ADD22R,1.350000X1.350000*%
%ADD23C,2.250000*%
%ADD24C,0.600000*%
%ADD25C,0.500000*%
%ADD26C,0.150000*%
%ADD27C,0.200000*%
%ADD28C,0.800000*%
%ADD29C,1.000000*%
%ADD30C,2.000000*%
%ADD31C,1.250000*%
G04 APERTURE END LIST*
D10*
X25000000Y-126000000D03*
D11*
X25000000Y-123460000D03*
D10*
X89000000Y-168500000D03*
D11*
X89000000Y-171040000D03*
D10*
X75000000Y-39000000D03*
D11*
X75000000Y-36460000D03*
D10*
X80000000Y-39000000D03*
D11*
X80000000Y-36460000D03*
D10*
X94000000Y-168500000D03*
D11*
X94000000Y-171040000D03*
D10*
X85000000Y-39000000D03*
D11*
X85000000Y-36460000D03*
X90000000Y-36460000D03*
D10*
X90000000Y-39000000D03*
D11*
X95000000Y-36460000D03*
D10*
X95000000Y-39000000D03*
X100000000Y-39000000D03*
D11*
X100000000Y-36460000D03*
D10*
X105000000Y-39000000D03*
D11*
X105000000Y-36460000D03*
D10*
X110000000Y-39000000D03*
D11*
X110000000Y-36460000D03*
D12*
X81000000Y-94380000D03*
X98780000Y-102000000D03*
X83540000Y-94380000D03*
X96240000Y-102000000D03*
X86080000Y-94380000D03*
X93700000Y-102000000D03*
X88620000Y-94380000D03*
X91160000Y-102000000D03*
X91160000Y-94380000D03*
X88620000Y-102000000D03*
X93700000Y-94380000D03*
X86080000Y-102000000D03*
X96240000Y-94380000D03*
X83540000Y-102000000D03*
X98780000Y-94380000D03*
D13*
X81000000Y-102000000D03*
D14*
X33750000Y-117000000D03*
D15*
X41370000Y-132240000D03*
X33750000Y-119540000D03*
X41370000Y-129700000D03*
X33750000Y-122080000D03*
X41370000Y-127160000D03*
X33750000Y-124620000D03*
X41370000Y-124620000D03*
X33750000Y-127160000D03*
X41370000Y-122080000D03*
X33750000Y-129700000D03*
X41370000Y-119540000D03*
X33750000Y-132240000D03*
X41370000Y-117000000D03*
D14*
X34000000Y-145000000D03*
D15*
X41620000Y-160240000D03*
X34000000Y-147540000D03*
X41620000Y-157700000D03*
X34000000Y-150080000D03*
X41620000Y-155160000D03*
X34000000Y-152620000D03*
X41620000Y-152620000D03*
X34000000Y-155160000D03*
X41620000Y-150080000D03*
X34000000Y-157700000D03*
X41620000Y-147540000D03*
X34000000Y-160240000D03*
X41620000Y-145000000D03*
D13*
X81000000Y-67000000D03*
D12*
X103860000Y-59380000D03*
X83540000Y-67000000D03*
X101320000Y-59380000D03*
X86080000Y-67000000D03*
X98780000Y-59380000D03*
X88620000Y-67000000D03*
X96240000Y-59380000D03*
X91160000Y-67000000D03*
X93700000Y-59380000D03*
X93700000Y-67000000D03*
X91160000Y-59380000D03*
X96240000Y-67000000D03*
X88620000Y-59380000D03*
X98780000Y-67000000D03*
X86080000Y-59380000D03*
X101320000Y-67000000D03*
X83540000Y-59380000D03*
X103860000Y-67000000D03*
X81000000Y-59380000D03*
D13*
X46000000Y-102000000D03*
D12*
X68860000Y-94380000D03*
X48540000Y-102000000D03*
X66320000Y-94380000D03*
X51080000Y-102000000D03*
X63780000Y-94380000D03*
X53620000Y-102000000D03*
X61240000Y-94380000D03*
X56160000Y-102000000D03*
X58700000Y-94380000D03*
X58700000Y-102000000D03*
X56160000Y-94380000D03*
X61240000Y-102000000D03*
X53620000Y-94380000D03*
X63780000Y-102000000D03*
X51080000Y-94380000D03*
X66320000Y-102000000D03*
X48540000Y-94380000D03*
X68860000Y-102000000D03*
X46000000Y-94380000D03*
D13*
X46000000Y-67000000D03*
D12*
X68860000Y-59380000D03*
X48540000Y-67000000D03*
X66320000Y-59380000D03*
X51080000Y-67000000D03*
X63780000Y-59380000D03*
X53620000Y-67000000D03*
X61240000Y-59380000D03*
X56160000Y-67000000D03*
X58700000Y-59380000D03*
X58700000Y-67000000D03*
X56160000Y-59380000D03*
X61240000Y-67000000D03*
X53620000Y-59380000D03*
X63780000Y-67000000D03*
X51080000Y-59380000D03*
X66320000Y-67000000D03*
X48540000Y-59380000D03*
X68860000Y-67000000D03*
X46000000Y-59380000D03*
D14*
X34000000Y-74000000D03*
D15*
X41620000Y-89240000D03*
X34000000Y-76540000D03*
X41620000Y-86700000D03*
X34000000Y-79080000D03*
X41620000Y-84160000D03*
X34000000Y-81620000D03*
X41620000Y-81620000D03*
X34000000Y-84160000D03*
X41620000Y-79080000D03*
X34000000Y-86700000D03*
X41620000Y-76540000D03*
X34000000Y-89240000D03*
X41620000Y-74000000D03*
D10*
X36500000Y-55500000D03*
D11*
X36500000Y-58040000D03*
D10*
X73500000Y-113000000D03*
D11*
X70960000Y-113000000D03*
D10*
X99000000Y-168500000D03*
D11*
X99000000Y-171040000D03*
D10*
X104000000Y-168500000D03*
D11*
X104000000Y-171040000D03*
D16*
X93340000Y-112000000D03*
X95880000Y-112000000D03*
X98420000Y-112000000D03*
X100960000Y-112000000D03*
D17*
X103500000Y-112000000D03*
D16*
X97540000Y-118000000D03*
D17*
X95000000Y-118000000D03*
X90000000Y-121000000D03*
D16*
X92540000Y-121000000D03*
X102540000Y-127000000D03*
D17*
X100000000Y-127000000D03*
D16*
X92540000Y-118000000D03*
D17*
X90000000Y-118000000D03*
D18*
X89000000Y-165000000D03*
D16*
X89000000Y-154840000D03*
X75000000Y-41840000D03*
D18*
X75000000Y-52000000D03*
X80000000Y-52000000D03*
D16*
X80000000Y-41840000D03*
X94000000Y-154840000D03*
D18*
X94000000Y-165000000D03*
D16*
X85000000Y-41840000D03*
D18*
X85000000Y-52000000D03*
X90000000Y-52000000D03*
D16*
X90000000Y-41840000D03*
X95000000Y-41840000D03*
D18*
X95000000Y-52000000D03*
X100000000Y-52000000D03*
D16*
X100000000Y-41840000D03*
X105000000Y-41840000D03*
D18*
X105000000Y-52000000D03*
D16*
X99000000Y-154840000D03*
D18*
X99000000Y-165000000D03*
X110000000Y-52000000D03*
D16*
X110000000Y-41840000D03*
D18*
X104000000Y-165000000D03*
D16*
X104000000Y-154840000D03*
D18*
X33750000Y-63000000D03*
D16*
X23590000Y-63000000D03*
X135840000Y-148500000D03*
D18*
X146000000Y-148500000D03*
X31250000Y-165500000D03*
D16*
X41410000Y-165500000D03*
X36500000Y-97590000D03*
D18*
X36500000Y-107750000D03*
D16*
X40500000Y-65660000D03*
D18*
X40500000Y-55500000D03*
D16*
X41410000Y-168750000D03*
D18*
X31250000Y-168750000D03*
X29000000Y-124500000D03*
D16*
X29000000Y-114340000D03*
D18*
X71000000Y-109000000D03*
D16*
X81160000Y-109000000D03*
X107540000Y-127000000D03*
D17*
X105000000Y-127000000D03*
D16*
X97540000Y-124000000D03*
D17*
X95000000Y-124000000D03*
D19*
X50660000Y-27500000D03*
D20*
X40500000Y-27500000D03*
D21*
X68750000Y-169750000D03*
X68750000Y-171750000D03*
X66750000Y-169750000D03*
X66750000Y-171750000D03*
X64750000Y-169750000D03*
X64750000Y-171750000D03*
X62750000Y-169750000D03*
X62750000Y-171750000D03*
X60750000Y-169750000D03*
X60750000Y-171750000D03*
X58750000Y-169750000D03*
X58750000Y-171750000D03*
X56750000Y-169750000D03*
X56750000Y-171750000D03*
X54750000Y-169750000D03*
X54750000Y-171750000D03*
X52750000Y-169750000D03*
X52750000Y-171750000D03*
X50750000Y-169750000D03*
D22*
X50750000Y-171750000D03*
X25400000Y-34290000D03*
D21*
X27400000Y-34290000D03*
X25400000Y-36290000D03*
X27400000Y-36290000D03*
X25400000Y-38290000D03*
X27400000Y-38290000D03*
X25400000Y-40290000D03*
X27400000Y-40290000D03*
X25400000Y-42290000D03*
X27400000Y-42290000D03*
X25400000Y-44290000D03*
X27400000Y-44290000D03*
X25400000Y-46290000D03*
X27400000Y-46290000D03*
X25400000Y-48290000D03*
X27400000Y-48290000D03*
X25400000Y-50290000D03*
X27400000Y-50290000D03*
X25400000Y-52290000D03*
X27400000Y-52290000D03*
D23*
X37540000Y-27500000D03*
X32460000Y-27500000D03*
X25250000Y-87210000D03*
X25250000Y-92290000D03*
X26000000Y-153750000D03*
X26000000Y-148750000D03*
X26000000Y-158750000D03*
X98960000Y-174000000D03*
X104040000Y-174000000D03*
X94040000Y-174000000D03*
X88960000Y-174000000D03*
D12*
X104000000Y-146120000D03*
X81140000Y-138500000D03*
X101460000Y-146120000D03*
X83680000Y-138500000D03*
X98920000Y-146120000D03*
X86220000Y-138500000D03*
X96380000Y-146120000D03*
X88760000Y-138500000D03*
X93840000Y-146120000D03*
X91300000Y-138500000D03*
X91300000Y-146120000D03*
X93840000Y-138500000D03*
X88760000Y-146120000D03*
X96380000Y-138500000D03*
X86220000Y-146120000D03*
X98920000Y-138500000D03*
X83680000Y-146120000D03*
X101460000Y-138500000D03*
X81140000Y-146120000D03*
D13*
X104000000Y-138500000D03*
D18*
X76000000Y-60000000D03*
X76000000Y-65000000D03*
X76750000Y-95500000D03*
X76750000Y-100500000D03*
D24*
X68750000Y-78500000D03*
X56200000Y-78500000D03*
X68750000Y-73000000D03*
X63500000Y-73000000D03*
X68750000Y-74500000D03*
X61250000Y-74500000D03*
X58800000Y-76200000D03*
X68750000Y-76250000D03*
X68750000Y-81000000D03*
X53900000Y-81000000D03*
X46750000Y-137750000D03*
X76750000Y-137750000D03*
X68750000Y-83750000D03*
X51200000Y-83800000D03*
X68500000Y-86500000D03*
X48600000Y-86500000D03*
X76750000Y-102000000D03*
X70750000Y-102000000D03*
X72250000Y-145000000D03*
X47000000Y-145000000D03*
X41250000Y-100000000D03*
X41300000Y-103500000D03*
X46750000Y-141750000D03*
X25250000Y-129750000D03*
X25000000Y-138250000D03*
X76500000Y-141750000D03*
X57000000Y-124750000D03*
X46500000Y-124750000D03*
X70300000Y-105600000D03*
X39500000Y-105600000D03*
X46500000Y-135000000D03*
X72000000Y-135000000D03*
X65250000Y-129750000D03*
X46500000Y-129750000D03*
X53750000Y-121500000D03*
X46500000Y-121500000D03*
X62000000Y-127000000D03*
X46500000Y-127000000D03*
X46500000Y-119250000D03*
X50750000Y-119250000D03*
X65250000Y-132500000D03*
X46500000Y-132500000D03*
D25*
X29250000Y-36500000D02*
X52500000Y-36500000D01*
D26*
X28000000Y-35250000D02*
X29250000Y-36500000D01*
X26500000Y-35250000D02*
X28000000Y-35250000D01*
X25460000Y-36290000D02*
X26500000Y-35250000D01*
D25*
X68860000Y-52860000D02*
X68860000Y-59380000D01*
X52500000Y-36500000D02*
X68860000Y-52860000D01*
D26*
X25400000Y-36290000D02*
X25460000Y-36290000D01*
D25*
X29250000Y-38500000D02*
X51500000Y-38500000D01*
D26*
X28000000Y-37250000D02*
X29250000Y-38500000D01*
X26500000Y-37250000D02*
X28000000Y-37250000D01*
X25460000Y-38290000D02*
X26500000Y-37250000D01*
D25*
X66320000Y-53320000D02*
X66320000Y-59380000D01*
X51500000Y-38500000D02*
X66320000Y-53320000D01*
D26*
X25400000Y-38290000D02*
X25460000Y-38290000D01*
D25*
X29250000Y-40250000D02*
X50750000Y-40250000D01*
D26*
X25460000Y-40290000D02*
X26500000Y-39250000D01*
X26500000Y-39250000D02*
X28250000Y-39250000D01*
X28250000Y-39250000D02*
X29250000Y-40250000D01*
D25*
X63780000Y-53280000D02*
X63780000Y-59380000D01*
X50750000Y-40250000D02*
X63780000Y-53280000D01*
D26*
X25400000Y-40290000D02*
X25460000Y-40290000D01*
X25400000Y-42290000D02*
X25400000Y-42100000D01*
X25400000Y-42100000D02*
X26250000Y-41250000D01*
D25*
X61240000Y-53990000D02*
X49750000Y-42500000D01*
X49750000Y-42500000D02*
X29000000Y-42500000D01*
X61240000Y-59380000D02*
X61240000Y-53990000D01*
D26*
X27750000Y-41250000D02*
X29000000Y-42500000D01*
X26250000Y-41250000D02*
X27750000Y-41250000D01*
X25400000Y-42290000D02*
X25460000Y-42290000D01*
D25*
X29250000Y-44250000D02*
X48500000Y-44250000D01*
D26*
X28250000Y-43250000D02*
X29250000Y-44250000D01*
X26500000Y-43250000D02*
X28250000Y-43250000D01*
X25460000Y-44290000D02*
X26500000Y-43250000D01*
D25*
X58750000Y-54500000D02*
X58750000Y-59330000D01*
X48500000Y-44250000D02*
X58750000Y-54500000D01*
X58750000Y-59330000D02*
X58700000Y-59380000D01*
D26*
X25400000Y-44290000D02*
X25460000Y-44290000D01*
D25*
X56160000Y-59380000D02*
X56160000Y-54910000D01*
D26*
X28250000Y-45250000D02*
X29250000Y-46250000D01*
X26250000Y-45250000D02*
X28250000Y-45250000D01*
X26250000Y-45250000D02*
X25400000Y-46100000D01*
D25*
X47500000Y-46250000D02*
X29250000Y-46250000D01*
X56160000Y-54910000D02*
X47500000Y-46250000D01*
D26*
X25400000Y-46290000D02*
X25400000Y-46100000D01*
D25*
X56200000Y-78500000D02*
X56200000Y-94340000D01*
D27*
X56200000Y-94340000D02*
X56160000Y-94380000D01*
D28*
X56160000Y-67000000D02*
X56160000Y-78460000D01*
X93700000Y-75550000D02*
X93700000Y-67000000D01*
X90750000Y-78500000D02*
X68750000Y-78500000D01*
X93700000Y-75550000D02*
X90750000Y-78500000D01*
X56160000Y-78460000D02*
X56200000Y-78500000D01*
D27*
X65000000Y-96000000D02*
X65250000Y-96000000D01*
D25*
X86080000Y-71420000D02*
X84500000Y-73000000D01*
X84500000Y-73000000D02*
X68750000Y-73000000D01*
X63500000Y-73000000D02*
X63750000Y-73250000D01*
X63750000Y-73250000D02*
X63750000Y-90750000D01*
X63750000Y-90750000D02*
X65000000Y-92000000D01*
D27*
X65000000Y-92000000D02*
X65000000Y-96000000D01*
D25*
X86080000Y-71420000D02*
X86080000Y-67000000D01*
X83540000Y-102000000D02*
X83540000Y-105460000D01*
X83540000Y-105460000D02*
X83600000Y-105520000D01*
X83600000Y-105520000D02*
X83520000Y-105520000D01*
X83520000Y-105520000D02*
X83500000Y-105500000D01*
X73000000Y-105500000D02*
X83500000Y-105500000D01*
X72750000Y-105250000D02*
X73000000Y-105500000D01*
X72750000Y-92500000D02*
X72750000Y-105250000D01*
X72500000Y-92250000D02*
X72750000Y-92500000D01*
X67750000Y-92250000D02*
X72500000Y-92250000D01*
D27*
X67750000Y-96000000D02*
X67750000Y-92250000D01*
X65250000Y-96000000D02*
X67750000Y-96000000D01*
D25*
X86080000Y-102000000D02*
X86080000Y-100330000D01*
X86080000Y-100330000D02*
X86000000Y-100250000D01*
X61250000Y-74500000D02*
X61250000Y-89450000D01*
X61250000Y-89450000D02*
X58700000Y-92000000D01*
X58700000Y-92000000D02*
X58700000Y-94380000D01*
D28*
X61250000Y-67010000D02*
X61250000Y-74500000D01*
X88620000Y-72380000D02*
X86500000Y-74500000D01*
X86500000Y-74500000D02*
X68750000Y-74500000D01*
X88620000Y-72380000D02*
X88620000Y-67000000D01*
X61250000Y-67010000D02*
X61240000Y-67000000D01*
D25*
X58800000Y-76200000D02*
X58800000Y-89400000D01*
X58800000Y-89400000D02*
X57400000Y-90800000D01*
D27*
X57400000Y-90800000D02*
X57400000Y-95900000D01*
D25*
X57400000Y-95900000D02*
X58700000Y-97200000D01*
X58700000Y-97200000D02*
X58700000Y-102000000D01*
D28*
X58700000Y-67000000D02*
X58700000Y-76100000D01*
X91160000Y-73590000D02*
X91160000Y-67000000D01*
X88500000Y-76250000D02*
X68750000Y-76250000D01*
X91160000Y-73590000D02*
X88500000Y-76250000D01*
X58700000Y-76100000D02*
X58800000Y-76200000D01*
D25*
X66320000Y-90250000D02*
X73750000Y-90250000D01*
X73750000Y-90250000D02*
X74250000Y-90750000D01*
X74250000Y-90750000D02*
X74250000Y-104250000D01*
X74250000Y-104250000D02*
X82250000Y-104250000D01*
D27*
X82250000Y-104250000D02*
X82250000Y-100250000D01*
D25*
X82250000Y-100250000D02*
X86000000Y-100250000D01*
D27*
X86000000Y-100250000D02*
X86000000Y-100500000D01*
D28*
X81250000Y-71500000D02*
X83500000Y-69250000D01*
X66320000Y-72430000D02*
X67250000Y-71500000D01*
X67250000Y-71500000D02*
X81250000Y-71500000D01*
X66320000Y-94380000D02*
X66320000Y-90250000D01*
X66320000Y-90250000D02*
X66320000Y-72430000D01*
X83500000Y-69250000D02*
X83500000Y-67040000D01*
X83500000Y-67040000D02*
X83540000Y-67000000D01*
D25*
X53900000Y-81000000D02*
X53900000Y-90500000D01*
X53900000Y-90500000D02*
X52300000Y-92100000D01*
D27*
X52300000Y-92100000D02*
X52300000Y-98140000D01*
D25*
X52300000Y-98140000D02*
X56160000Y-102000000D01*
D28*
X53620000Y-67000000D02*
X53620000Y-80720000D01*
X96240000Y-76510000D02*
X91750000Y-81000000D01*
X91750000Y-81000000D02*
X68750000Y-81000000D01*
X96240000Y-76510000D02*
X96240000Y-67000000D01*
X53620000Y-80720000D02*
X53900000Y-81000000D01*
D25*
X31250000Y-117000000D02*
X31250000Y-131000000D01*
D27*
X31250000Y-131000000D02*
X35750000Y-131000000D01*
D25*
X35750000Y-131000000D02*
X41750000Y-137000000D01*
X33750000Y-117000000D02*
X31250000Y-117000000D01*
X42500000Y-137750000D02*
X46750000Y-137750000D01*
X41750000Y-137000000D02*
X42500000Y-137750000D01*
X76750000Y-137750000D02*
X77250000Y-137750000D01*
X33750000Y-124620000D02*
X29120000Y-124620000D01*
X29120000Y-124620000D02*
X29000000Y-124500000D01*
X51200000Y-83800000D02*
X51200000Y-89400000D01*
X48540000Y-92060000D02*
X48540000Y-94380000D01*
X51200000Y-89400000D02*
X48540000Y-92060000D01*
D28*
X51080000Y-67000000D02*
X51080000Y-83680000D01*
X98780000Y-78220000D02*
X93250000Y-83750000D01*
X93250000Y-83750000D02*
X68750000Y-83750000D01*
X98780000Y-78220000D02*
X98780000Y-67000000D01*
X51080000Y-83680000D02*
X51200000Y-83800000D01*
D25*
X48540000Y-102000000D02*
X48540000Y-97440000D01*
X48540000Y-97440000D02*
X47300000Y-96200000D01*
D27*
X47300000Y-96200000D02*
X47300000Y-87800000D01*
D25*
X47300000Y-87800000D02*
X48600000Y-86500000D01*
D28*
X48600000Y-67060000D02*
X48600000Y-86500000D01*
X101320000Y-79180000D02*
X94000000Y-86500000D01*
X94000000Y-86500000D02*
X68500000Y-86500000D01*
X101320000Y-79180000D02*
X101320000Y-67000000D01*
X48600000Y-67060000D02*
X48540000Y-67000000D01*
D25*
X68750000Y-116500000D02*
X75500000Y-116500000D01*
X75500000Y-113000000D02*
X73500000Y-113000000D01*
X75500000Y-116500000D02*
X75500000Y-113000000D01*
D29*
X68860000Y-102000000D02*
X70750000Y-102000000D01*
X76750000Y-102000000D02*
X76750000Y-102250000D01*
X50750000Y-171750000D02*
X52750000Y-171750000D01*
X52750000Y-171750000D02*
X54750000Y-171750000D01*
X54750000Y-171750000D02*
X56750000Y-171750000D01*
X56750000Y-171750000D02*
X58750000Y-171750000D01*
X58750000Y-171750000D02*
X60750000Y-171750000D01*
X60750000Y-171750000D02*
X62750000Y-171750000D01*
X62750000Y-171750000D02*
X64750000Y-171750000D01*
X64750000Y-171750000D02*
X66750000Y-171750000D01*
X66750000Y-171750000D02*
X68750000Y-171750000D01*
X68750000Y-171750000D02*
X68750000Y-169750000D01*
D30*
X45000000Y-176000000D02*
X46500000Y-176000000D01*
X30000000Y-176000000D02*
X45000000Y-176000000D01*
X19500000Y-165500000D02*
X30000000Y-176000000D01*
X19500000Y-156250000D02*
X19500000Y-165500000D01*
X46500000Y-176000000D02*
X50750000Y-171750000D01*
X50750000Y-171750000D02*
X50750000Y-169750000D01*
D25*
X68750000Y-169750000D02*
X68750000Y-116500000D01*
X68750000Y-116500000D02*
X68750000Y-102110000D01*
X68750000Y-102110000D02*
X68860000Y-102000000D01*
D28*
X66250000Y-70000000D02*
X66250000Y-67070000D01*
X66250000Y-67070000D02*
X66320000Y-67000000D01*
X63780000Y-67000000D02*
X63780000Y-69970000D01*
X68860000Y-69860000D02*
X68860000Y-67000000D01*
X69000000Y-70000000D02*
X68860000Y-69860000D01*
X63810000Y-70000000D02*
X66250000Y-70000000D01*
X66250000Y-70000000D02*
X69000000Y-70000000D01*
X63780000Y-69970000D02*
X63810000Y-70000000D01*
D29*
X76750000Y-100500000D02*
X76750000Y-102250000D01*
X77000000Y-102000000D02*
X81000000Y-102000000D01*
X76750000Y-102250000D02*
X77000000Y-102000000D01*
X76000000Y-65000000D02*
X76000000Y-67000000D01*
X25400000Y-52290000D02*
X27400000Y-52290000D01*
X27400000Y-52290000D02*
X27400000Y-50290000D01*
X31500000Y-89500000D02*
X31500000Y-92250000D01*
X33750000Y-102000000D02*
X31500000Y-99750000D01*
X31500000Y-99750000D02*
X31500000Y-92250000D01*
X33750000Y-102000000D02*
X46000000Y-102000000D01*
X31500000Y-89500000D02*
X31500000Y-89750000D01*
X31500000Y-89750000D02*
X31500000Y-89500000D01*
X31500000Y-89500000D02*
X31500000Y-89250000D01*
X31500000Y-89250000D02*
X31500000Y-89500000D01*
D28*
X33750000Y-132240000D02*
X19500000Y-132240000D01*
X19750000Y-132250000D02*
X19500000Y-132250000D01*
X19510000Y-132250000D02*
X19750000Y-132250000D01*
X19500000Y-132240000D02*
X19510000Y-132250000D01*
D25*
X81000000Y-64000000D02*
X81250000Y-64000000D01*
X83540000Y-61710000D02*
X83540000Y-59380000D01*
X81250000Y-64000000D02*
X83540000Y-61710000D01*
X34000000Y-160240000D02*
X29760000Y-160240000D01*
X29500000Y-156250000D02*
X19500000Y-156250000D01*
X29500000Y-159980000D02*
X29500000Y-156250000D01*
X29760000Y-160240000D02*
X29500000Y-159980000D01*
X19500000Y-156250000D02*
X20500000Y-156250000D01*
X20500000Y-156250000D02*
X19500000Y-156250000D01*
D28*
X25400000Y-52290000D02*
X19540000Y-52290000D01*
X19540000Y-52290000D02*
X19500000Y-52250000D01*
D29*
X25400000Y-34290000D02*
X19500000Y-34290000D01*
X19500000Y-34290000D02*
X19500000Y-34500000D01*
D31*
X19500000Y-89500000D02*
X31500000Y-89500000D01*
X31500000Y-89500000D02*
X33740000Y-89500000D01*
X33740000Y-89500000D02*
X34000000Y-89240000D01*
X71500000Y-67000000D02*
X71500000Y-55500000D01*
X70500000Y-27500000D02*
X50660000Y-27500000D01*
X70500000Y-54500000D02*
X70500000Y-27500000D01*
X71500000Y-55500000D02*
X70500000Y-54500000D01*
X81000000Y-67000000D02*
X76000000Y-67000000D01*
X76000000Y-67000000D02*
X71500000Y-67000000D01*
X71500000Y-67000000D02*
X68860000Y-67000000D01*
X103860000Y-67000000D02*
X103860000Y-64360000D01*
X81000000Y-64000000D02*
X81000000Y-67000000D01*
X103500000Y-64000000D02*
X81000000Y-64000000D01*
X103860000Y-64360000D02*
X103500000Y-64000000D01*
X98780000Y-102000000D02*
X98780000Y-99280000D01*
X81000000Y-99000000D02*
X81000000Y-102000000D01*
X98500000Y-99000000D02*
X81000000Y-99000000D01*
X98780000Y-99280000D02*
X98500000Y-99000000D01*
D30*
X32500000Y-27500000D02*
X22000000Y-27500000D01*
X19500000Y-30000000D02*
X19500000Y-32000000D01*
X19500000Y-32000000D02*
X19500000Y-34500000D01*
X19500000Y-34500000D02*
X19500000Y-52250000D01*
X19500000Y-52250000D02*
X19500000Y-84250000D01*
X19500000Y-84250000D02*
X19500000Y-89500000D01*
X19500000Y-89500000D02*
X19500000Y-132250000D01*
X19500000Y-132250000D02*
X19500000Y-156250000D01*
X22000000Y-27500000D02*
X19500000Y-30000000D01*
X50660000Y-27500000D02*
X50500000Y-27500000D01*
X50500000Y-27500000D02*
X46000000Y-32000000D01*
X46000000Y-32000000D02*
X34000000Y-32000000D01*
X34000000Y-32000000D02*
X32500000Y-30500000D01*
X32500000Y-30500000D02*
X32500000Y-27500000D01*
D28*
X41620000Y-76540000D02*
X41620000Y-74000000D01*
D29*
X76750000Y-95500000D02*
X76750000Y-94250000D01*
X76880000Y-94380000D02*
X81000000Y-94380000D01*
X76750000Y-94250000D02*
X76880000Y-94380000D01*
X76000000Y-60000000D02*
X76000000Y-57500000D01*
D25*
X72250000Y-145000000D02*
X74000000Y-145000000D01*
X25000000Y-123460000D02*
X25000000Y-118340000D01*
X25000000Y-118340000D02*
X29000000Y-114340000D01*
D28*
X41250000Y-114500000D02*
X29160000Y-114500000D01*
D25*
X29160000Y-114500000D02*
X29000000Y-114340000D01*
D28*
X41250000Y-116880000D02*
X41250000Y-114500000D01*
X41250000Y-114500000D02*
X41300000Y-103500000D01*
X41250000Y-100000000D02*
X41250000Y-97180000D01*
D25*
X41250000Y-116880000D02*
X41370000Y-117000000D01*
X36500000Y-97590000D02*
X40840000Y-97590000D01*
X40840000Y-97590000D02*
X41250000Y-97180000D01*
D28*
X41250000Y-97180000D02*
X41250000Y-94380000D01*
D25*
X36500000Y-58040000D02*
X35960000Y-58040000D01*
X35960000Y-58040000D02*
X33750000Y-60250000D01*
X33750000Y-60250000D02*
X33750000Y-63000000D01*
X47000000Y-145000000D02*
X41620000Y-145000000D01*
X41410000Y-165500000D02*
X41500000Y-165500000D01*
X41500000Y-165500000D02*
X47000000Y-160000000D01*
X47000000Y-160000000D02*
X47000000Y-145000000D01*
X41410000Y-168750000D02*
X41410000Y-165500000D01*
X39000000Y-74000000D02*
X41620000Y-74000000D01*
X43750000Y-58040000D02*
X43750000Y-67000000D01*
X41130000Y-94380000D02*
X41250000Y-94380000D01*
D28*
X41250000Y-94380000D02*
X46000000Y-94380000D01*
D25*
X39000000Y-92250000D02*
X41130000Y-94380000D01*
X39000000Y-71750000D02*
X39000000Y-74000000D01*
X39000000Y-74000000D02*
X39000000Y-92250000D01*
X43750000Y-67000000D02*
X39000000Y-71750000D01*
X36500000Y-58040000D02*
X43750000Y-58040000D01*
X43750000Y-58040000D02*
X45960000Y-58040000D01*
X46000000Y-58080000D02*
X46000000Y-59380000D01*
X45960000Y-58040000D02*
X46000000Y-58080000D01*
D28*
X94000000Y-154840000D02*
X94000000Y-146280000D01*
X94000000Y-146280000D02*
X93840000Y-146120000D01*
D31*
X114000000Y-36500000D02*
X110040000Y-36500000D01*
X110040000Y-36500000D02*
X110000000Y-36460000D01*
X110000000Y-36460000D02*
X100000000Y-36460000D01*
X100000000Y-36460000D02*
X95000000Y-36460000D01*
X95000000Y-36460000D02*
X90000000Y-36460000D01*
X90000000Y-36460000D02*
X85000000Y-36460000D01*
X85000000Y-36460000D02*
X80000000Y-36460000D01*
X80000000Y-36460000D02*
X75000000Y-36460000D01*
X75000000Y-36460000D02*
X74460000Y-37000000D01*
X74460000Y-37000000D02*
X74000000Y-37000000D01*
X74000000Y-37000000D02*
X72500000Y-38500000D01*
X72500000Y-38500000D02*
X72500000Y-54000000D01*
X72500000Y-54000000D02*
X76000000Y-57500000D01*
X76000000Y-57500000D02*
X77880000Y-59380000D01*
X77880000Y-59380000D02*
X81000000Y-59380000D01*
X81000000Y-94380000D02*
X81000000Y-95000000D01*
X81000000Y-95000000D02*
X83000000Y-97000000D01*
X83000000Y-97000000D02*
X114000000Y-97000000D01*
X103500000Y-112000000D02*
X114000000Y-112000000D01*
X114000000Y-112000000D02*
X114500000Y-112000000D01*
X114500000Y-112000000D02*
X114000000Y-112000000D01*
X104000000Y-146120000D02*
X114000000Y-146120000D01*
X113500000Y-146500000D02*
X114000000Y-146500000D01*
X113620000Y-146500000D02*
X113500000Y-146500000D01*
X114000000Y-146120000D02*
X113620000Y-146500000D01*
D30*
X44500000Y-22000000D02*
X39000000Y-27500000D01*
X114000000Y-30500000D02*
X114000000Y-36500000D01*
X114000000Y-36500000D02*
X114000000Y-97000000D01*
X114000000Y-97000000D02*
X114000000Y-112000000D01*
X114000000Y-112000000D02*
X114000000Y-146500000D01*
X114000000Y-146500000D02*
X114000000Y-167500000D01*
X105500000Y-22000000D02*
X114000000Y-30500000D01*
X44500000Y-22000000D02*
X105500000Y-22000000D01*
X37000000Y-27500000D02*
X39000000Y-27500000D01*
X39000000Y-27500000D02*
X40500000Y-27500000D01*
D29*
X94000000Y-146280000D02*
X93840000Y-146120000D01*
D30*
X104500000Y-177000000D02*
X102000000Y-177000000D01*
X102000000Y-177000000D02*
X97000000Y-177000000D01*
X97000000Y-177000000D02*
X91500000Y-177000000D01*
X114000000Y-167500000D02*
X104500000Y-177000000D01*
D31*
X102000000Y-177000000D02*
X102000000Y-172000000D01*
X102000000Y-172000000D02*
X102960000Y-171040000D01*
X97000000Y-177000000D02*
X97000000Y-172000000D01*
X97000000Y-172000000D02*
X97960000Y-171040000D01*
X91500000Y-177000000D02*
X91500000Y-172000000D01*
X91500000Y-172000000D02*
X92460000Y-171040000D01*
D30*
X91500000Y-177000000D02*
X84000000Y-177000000D01*
D31*
X84500000Y-174500000D02*
X84500000Y-177000000D01*
D30*
X84000000Y-177000000D02*
X84500000Y-177000000D01*
D31*
X84500000Y-171500000D02*
X84500000Y-174500000D01*
X84500000Y-163000000D02*
X84500000Y-171500000D01*
D27*
X39250000Y-150080000D02*
X39250000Y-147500000D01*
X39290000Y-147540000D02*
X41620000Y-147540000D01*
X39250000Y-147500000D02*
X39290000Y-147540000D01*
X41580000Y-147500000D02*
X41620000Y-147540000D01*
X39250000Y-150080000D02*
X39250000Y-153750000D01*
X44240000Y-160240000D02*
X41620000Y-160240000D01*
X44750000Y-153750000D02*
X39250000Y-153750000D01*
X44750000Y-159730000D02*
X44750000Y-153750000D01*
X44240000Y-160240000D02*
X44750000Y-159730000D01*
X39250000Y-150080000D02*
X41620000Y-150080000D01*
D25*
X25000000Y-129500000D02*
X25250000Y-129750000D01*
X25000000Y-138250000D02*
X25250000Y-138000000D01*
X25250000Y-138000000D02*
X37500000Y-138000000D01*
X37500000Y-138000000D02*
X41250000Y-141750000D01*
X41250000Y-141750000D02*
X46750000Y-141750000D01*
X25000000Y-126000000D02*
X25000000Y-129500000D01*
X76500000Y-141750000D02*
X77000000Y-141750000D01*
D29*
X36500000Y-55500000D02*
X40500000Y-55500000D01*
X89000000Y-165000000D02*
X89000000Y-168500000D01*
X75000000Y-41840000D02*
X75000000Y-39000000D01*
X80000000Y-41840000D02*
X80000000Y-39000000D01*
X94000000Y-165000000D02*
X94000000Y-168500000D01*
X85000000Y-41840000D02*
X85000000Y-39000000D01*
X90000000Y-41840000D02*
X90000000Y-39000000D01*
X95000000Y-41840000D02*
X95000000Y-39000000D01*
X100000000Y-41840000D02*
X100000000Y-39000000D01*
X105000000Y-41840000D02*
X105000000Y-39000000D01*
X110000000Y-41840000D02*
X110000000Y-39000000D01*
D25*
X29250000Y-48250000D02*
X46750000Y-48250000D01*
D26*
X28250000Y-47250000D02*
X29250000Y-48250000D01*
X25400000Y-48100000D02*
X26250000Y-47250000D01*
X26250000Y-47250000D02*
X28250000Y-47250000D01*
D25*
X53620000Y-55120000D02*
X53620000Y-59380000D01*
X46750000Y-48250000D02*
X53620000Y-55120000D01*
D26*
X25400000Y-48290000D02*
X25400000Y-48100000D01*
X29250000Y-50250000D02*
X29000000Y-50250000D01*
D25*
X51080000Y-55080000D02*
X46250000Y-50250000D01*
X46250000Y-50250000D02*
X29250000Y-50250000D01*
X51080000Y-59380000D02*
X51080000Y-55080000D01*
D26*
X26440000Y-49250000D02*
X25400000Y-50290000D01*
X28000000Y-49250000D02*
X26440000Y-49250000D01*
X29000000Y-50250000D02*
X28000000Y-49250000D01*
D29*
X34000000Y-74000000D02*
X34000000Y-73410000D01*
X34000000Y-73410000D02*
X23590000Y-63000000D01*
X25250000Y-87210000D02*
X25250000Y-72750000D01*
X23590000Y-71090000D02*
X23590000Y-63000000D01*
X25250000Y-72750000D02*
X23590000Y-71090000D01*
D25*
X34000000Y-86700000D02*
X37700000Y-86700000D01*
X37500000Y-68660000D02*
X40500000Y-65660000D01*
X37500000Y-86500000D02*
X37500000Y-68660000D01*
X37700000Y-86700000D02*
X37500000Y-86500000D01*
D29*
X85000000Y-57000000D02*
X81500000Y-57000000D01*
X86080000Y-58080000D02*
X85000000Y-57000000D01*
X86080000Y-59380000D02*
X86080000Y-58080000D01*
X76500000Y-52000000D02*
X75000000Y-52000000D01*
X81500000Y-57000000D02*
X76500000Y-52000000D01*
X88620000Y-59380000D02*
X88620000Y-57620000D01*
X83000000Y-55000000D02*
X80000000Y-52000000D01*
X86000000Y-55000000D02*
X83000000Y-55000000D01*
X88620000Y-57620000D02*
X86000000Y-55000000D01*
X91160000Y-59380000D02*
X91160000Y-56160000D01*
X86500000Y-53500000D02*
X85000000Y-52000000D01*
X88500000Y-53500000D02*
X86500000Y-53500000D01*
X91160000Y-56160000D02*
X88500000Y-53500000D01*
X96240000Y-59380000D02*
X96240000Y-53240000D01*
X96240000Y-53240000D02*
X95000000Y-52000000D01*
X101320000Y-59380000D02*
X101320000Y-55680000D01*
X101320000Y-55680000D02*
X105000000Y-52000000D01*
D27*
X41620000Y-152620000D02*
X44620000Y-152620000D01*
X28000000Y-148750000D02*
X26000000Y-148750000D01*
X30500000Y-146250000D02*
X28000000Y-148750000D01*
X44750000Y-146250000D02*
X30500000Y-146250000D01*
X44750000Y-152490000D02*
X44750000Y-146250000D01*
X44620000Y-152620000D02*
X44750000Y-152490000D01*
D25*
X31250000Y-168750000D02*
X31750000Y-168750000D01*
X31750000Y-168750000D02*
X38750000Y-161750000D01*
X40300000Y-157700000D02*
X41620000Y-157700000D01*
X38750000Y-159250000D02*
X40300000Y-157700000D01*
X38750000Y-161750000D02*
X38750000Y-159250000D01*
X26000000Y-158750000D02*
X26000000Y-163500000D01*
X26000000Y-163500000D02*
X31250000Y-168750000D01*
X46370000Y-124620000D02*
X46500000Y-124750000D01*
X46370000Y-124620000D02*
X41370000Y-124620000D01*
D28*
X89000000Y-154840000D02*
X89000000Y-151000000D01*
X91300000Y-148700000D02*
X91300000Y-146120000D01*
X89000000Y-151000000D02*
X91300000Y-148700000D01*
D29*
X99000000Y-165000000D02*
X99000000Y-168500000D01*
X104000000Y-165000000D02*
X104000000Y-168500000D01*
D27*
X88960000Y-174000000D02*
X88960000Y-173231850D01*
X88960000Y-173231850D02*
X91750000Y-170441850D01*
X91750000Y-170441850D02*
X91750000Y-150000000D01*
X91750000Y-150000000D02*
X92500000Y-149250000D01*
X92500000Y-149250000D02*
X92500000Y-142000000D01*
X92500000Y-142000000D02*
X93840000Y-140660000D01*
X93840000Y-140660000D02*
X93840000Y-138500000D01*
X94040000Y-174000000D02*
X94040000Y-173651850D01*
X94040000Y-173651850D02*
X96500000Y-171191850D01*
X96500000Y-171191850D02*
X96500000Y-151000000D01*
X96500000Y-151000000D02*
X95000000Y-149500000D01*
X95000000Y-149500000D02*
X95000000Y-142500000D01*
X95000000Y-142500000D02*
X96380000Y-141120000D01*
X96380000Y-141120000D02*
X96380000Y-138500000D01*
D28*
X98960000Y-174000000D02*
X98960000Y-173307586D01*
X98960000Y-173307586D02*
X101500000Y-170767586D01*
D27*
X101500000Y-170767586D02*
X101500000Y-153000000D01*
X101500000Y-153000000D02*
X97750000Y-149250000D01*
X97750000Y-149250000D02*
X97750000Y-142000000D01*
X97750000Y-142000000D02*
X98920000Y-140830000D01*
X98920000Y-140830000D02*
X98920000Y-138500000D01*
X100500000Y-148000000D02*
X100500000Y-147750000D01*
D28*
X100500000Y-148000000D02*
X107500000Y-155000000D01*
X107500000Y-170500000D02*
X107500000Y-155000000D01*
X104040000Y-173960000D02*
X107500000Y-170500000D01*
D27*
X101460000Y-141540000D02*
X101460000Y-138500000D01*
X100250000Y-142750000D02*
X101460000Y-141540000D01*
X100250000Y-147500000D02*
X100250000Y-142750000D01*
X100500000Y-147750000D02*
X100250000Y-147500000D01*
D28*
X104040000Y-174000000D02*
X104040000Y-173960000D01*
X99000000Y-154840000D02*
X99000000Y-151500000D01*
X96380000Y-148880000D02*
X96380000Y-146120000D01*
X99000000Y-151500000D02*
X96380000Y-148880000D01*
D25*
X70960000Y-113000000D02*
X70960000Y-109040000D01*
X70960000Y-109040000D02*
X71000000Y-109000000D01*
X36500000Y-107750000D02*
X39450000Y-107750000D01*
X86220000Y-131220000D02*
X86220000Y-138500000D01*
X81400000Y-126400000D02*
X86220000Y-131220000D01*
X81400000Y-113300000D02*
X81400000Y-126400000D01*
X77100000Y-109000000D02*
X81400000Y-113300000D01*
X73200000Y-109000000D02*
X77100000Y-109000000D01*
X70500000Y-106300000D02*
X73200000Y-109000000D01*
X70500000Y-105800000D02*
X70500000Y-106300000D01*
X70300000Y-105600000D02*
X70500000Y-105800000D01*
X39500000Y-107700000D02*
X39500000Y-105600000D01*
X39450000Y-107750000D02*
X39500000Y-107700000D01*
D29*
X25250000Y-92290000D02*
X25250000Y-101000000D01*
X32000000Y-107750000D02*
X36500000Y-107750000D01*
X25250000Y-101000000D02*
X32000000Y-107750000D01*
D25*
X68860000Y-94380000D02*
X71120000Y-94380000D01*
X87500000Y-142300000D02*
X83680000Y-146120000D01*
X87500000Y-129700000D02*
X87500000Y-142300000D01*
X83200000Y-125400000D02*
X87500000Y-129700000D01*
X83200000Y-111040000D02*
X83200000Y-125400000D01*
X79060000Y-106900000D02*
X83200000Y-111040000D01*
X72200000Y-106900000D02*
X79060000Y-106900000D01*
X71800000Y-106500000D02*
X72200000Y-106900000D01*
X71800000Y-95060000D02*
X71800000Y-106500000D01*
X71120000Y-94380000D02*
X71800000Y-95060000D01*
D29*
X93700000Y-59380000D02*
X93700000Y-55700000D01*
X93700000Y-55700000D02*
X90000000Y-52000000D01*
X98780000Y-59380000D02*
X98780000Y-55220000D01*
X100000000Y-54000000D02*
X100000000Y-52000000D01*
X98780000Y-55220000D02*
X100000000Y-54000000D01*
X103860000Y-59380000D02*
X103860000Y-58140000D01*
X103860000Y-58140000D02*
X110000000Y-52000000D01*
D28*
X104000000Y-154840000D02*
X104000000Y-154250000D01*
X104000000Y-154250000D02*
X98920000Y-149170000D01*
X98920000Y-149170000D02*
X98920000Y-146120000D01*
D29*
X98920000Y-146120000D02*
X98920000Y-146420000D01*
D25*
X41370000Y-132240000D02*
X41370000Y-132620000D01*
X41370000Y-132620000D02*
X43750000Y-135000000D01*
X43750000Y-135000000D02*
X46500000Y-135000000D01*
X72000000Y-135000000D02*
X73250000Y-135000000D01*
X51080000Y-102000000D02*
X51080000Y-103820000D01*
D27*
X45250000Y-116750000D02*
X48000000Y-116750000D01*
X44250000Y-117750000D02*
X45250000Y-116750000D01*
X44250000Y-119000000D02*
X44250000Y-117750000D01*
X42500000Y-120750000D02*
X44250000Y-119000000D01*
X35500000Y-120750000D02*
X42500000Y-120750000D01*
X35500000Y-120750000D02*
X34290000Y-119540000D01*
D25*
X48000000Y-106900000D02*
X48000000Y-116750000D01*
X51080000Y-103820000D02*
X48000000Y-106900000D01*
D27*
X33750000Y-119540000D02*
X34290000Y-119540000D01*
D25*
X41370000Y-129700000D02*
X46450000Y-129700000D01*
X46450000Y-129700000D02*
X46500000Y-129750000D01*
D27*
X33750000Y-122080000D02*
X34580000Y-122080000D01*
D25*
X34580000Y-122080000D02*
X35750000Y-123250000D01*
X44750000Y-121500000D02*
X46500000Y-121500000D01*
X43000000Y-123250000D02*
X44750000Y-121500000D01*
D27*
X35750000Y-123250000D02*
X43000000Y-123250000D01*
X33750000Y-127160000D02*
X34660000Y-127160000D01*
D25*
X34660000Y-127160000D02*
X36000000Y-128500000D01*
X44250000Y-127000000D02*
X46500000Y-127000000D01*
X42750000Y-128500000D02*
X44250000Y-127000000D01*
D27*
X36000000Y-128500000D02*
X42750000Y-128500000D01*
X41370000Y-122080000D02*
X41420000Y-122080000D01*
X42170000Y-122330000D02*
X45250000Y-119250000D01*
X45250000Y-119250000D02*
X46500000Y-119250000D01*
D25*
X33750000Y-129700000D02*
X36200000Y-129700000D01*
X65250000Y-132500000D02*
X66000000Y-132500000D01*
X44500000Y-132500000D02*
X46500000Y-132500000D01*
X43000000Y-131000000D02*
X44500000Y-132500000D01*
D27*
X37500000Y-131000000D02*
X43000000Y-131000000D01*
D25*
X36200000Y-129700000D02*
X37500000Y-131000000D01*
D31*
X102960000Y-171040000D02*
X104000000Y-171040000D01*
X97960000Y-171040000D02*
X99000000Y-171040000D01*
X92460000Y-171040000D02*
X94000000Y-171040000D01*
X84500000Y-171500000D02*
X88540000Y-171500000D01*
X88540000Y-171500000D02*
X89000000Y-171040000D01*
D25*
X48540000Y-59380000D02*
X48540000Y-56290000D01*
X36120000Y-81620000D02*
X34000000Y-81620000D01*
X36250000Y-81750000D02*
X36120000Y-81620000D01*
X36250000Y-71000000D02*
X36250000Y-81750000D01*
X30750000Y-65500000D02*
X36250000Y-71000000D01*
X30750000Y-55500000D02*
X30750000Y-65500000D01*
X33750000Y-52500000D02*
X30750000Y-55500000D01*
X44750000Y-52500000D02*
X33750000Y-52500000D01*
X48540000Y-56290000D02*
X44750000Y-52500000D01*
D27*
X46000000Y-67000000D02*
X46000000Y-64750000D01*
X48540000Y-62210000D02*
X48540000Y-59380000D01*
X46000000Y-64750000D02*
X48540000Y-62210000D01*
D28*
X41620000Y-86700000D02*
X41620000Y-84160000D01*
X41620000Y-81620000D02*
X41620000Y-79080000D01*
M02*
